<svg width="398" height="87" viewBox="0 0 398 87" fill="none" xmlns="http://www.w3.org/2000/svg">
<g filter="url(#filter0_d_17_9)">
<path d="M8.41375 3.744C9.94975 3.168 11.6058 2.88 13.3818 2.88C17.6538 2.88 19.7898 4.824 19.7898 8.712C19.7898 10.824 19.5498 14.304 19.0698 19.152C18.5898 23.952 18.3498 28.944 18.3498 34.128C18.3498 39.312 18.5178 43.608 18.8538 47.016C20.1498 47.16 21.4458 47.232 22.7418 47.232C29.0778 47.232 34.6458 46.176 39.4458 44.064C40.0218 45.36 40.3098 46.824 40.3098 48.456C40.3098 50.088 39.7338 51.504 38.5818 52.704C37.4778 53.856 36.1098 54.432 34.4778 54.432C31.0698 54.432 23.6058 54.144 12.0858 53.568C11.1738 53.52 10.3818 53.256 9.70975 52.776C9.03775 52.248 8.70175 51.6 8.70175 50.832C8.70175 48.288 8.89375 43.992 9.27775 37.944C9.70975 31.896 9.92575 26.328 9.92575 21.24C9.92575 16.104 9.42175 10.272 8.41375 3.744ZM45.6141 46.656L46.3341 31.68C46.3341 27.024 45.6621 22.608 44.3181 18.432C45.6621 17.856 47.3181 17.568 49.2861 17.568C53.1261 17.568 55.0461 19.704 55.0461 23.976C55.0461 26.376 54.7821 29.76 54.2541 34.128C53.7261 38.448 53.4621 41.592 53.4621 43.56C53.4621 45.96 54.5421 47.16 56.7021 47.16C57.9981 47.16 59.5101 46.08 61.2381 43.92C63.0141 41.712 64.5261 39.264 65.7741 36.576C67.0701 33.84 67.8381 31.608 68.0781 29.88C67.7901 24.6 67.3821 20.784 66.8541 18.432C68.3901 17.856 69.9501 17.568 71.5341 17.568C73.1661 17.568 74.5101 18.072 75.5661 19.08C76.6701 20.088 77.2221 21.336 77.2221 22.824C77.2221 24.312 77.0061 26.784 76.5741 30.24C76.1421 33.696 75.9261 37.32 75.9261 41.112C75.9261 44.856 76.3581 48.864 77.2221 53.136C75.3501 53.712 73.6701 54 72.1821 54C69.2061 54 67.7181 52.032 67.7181 48.096C67.7181 46.368 67.9101 43.968 68.2941 40.896C66.3741 44.976 64.0221 48.264 61.2381 50.76C58.5021 53.208 55.7181 54.432 52.8861 54.432C48.0381 54.432 45.6141 51.84 45.6141 46.656ZM117.525 49.104C117.525 50.784 117.069 52.104 116.157 53.064C115.293 53.976 114.117 54.432 112.629 54.432C111.141 54.432 109.797 54.144 108.597 53.568C107.445 52.944 106.293 51.936 105.141 50.544C103.989 49.152 103.077 47.976 102.405 47.016C101.445 45.528 99.6927 42.576 97.1487 38.16C92.3487 42.72 89.9487 48 89.9487 54C87.5487 54 85.5327 53.544 83.9007 52.632C82.3167 51.72 81.5247 50.376 81.5247 48.6C81.5247 46.824 82.1007 45.192 83.2527 43.704C84.4527 42.168 86.3487 40.296 88.9407 38.088C91.5807 35.88 93.3327 34.344 94.1967 33.48C92.3727 30.696 90.5487 28.512 88.7247 26.928C86.9487 25.296 84.6687 23.952 81.8847 22.896C81.8847 21.312 82.3887 20.04 83.3967 19.08C84.4527 18.072 85.6767 17.568 87.0687 17.568C88.4607 17.568 89.7087 17.832 90.8127 18.36C91.9647 18.84 92.9487 19.416 93.7647 20.088C94.6287 20.712 95.5647 21.648 96.5727 22.896C97.7727 24.288 99.3327 26.448 101.253 29.376C102.405 28.032 103.269 26.952 103.845 26.136C105.285 23.976 106.005 21.12 106.005 17.568C107.781 17.568 109.245 17.64 110.397 17.784C111.597 17.928 112.701 18.384 113.709 19.152C114.765 19.872 115.293 20.904 115.293 22.248C115.293 23.592 114.621 25.008 113.277 26.496C111.933 27.984 110.229 29.52 108.165 31.104C106.101 32.64 104.781 33.72 104.205 34.344C106.269 38.52 108.333 41.832 110.397 44.28C112.461 46.68 114.837 48.288 117.525 49.104ZM144.372 2.664L159.564 2.88C167.436 2.88 173.196 2.592 176.844 2.016C177.372 3.024 177.636 4.176 177.636 5.472C177.636 6.768 177.06 7.944 175.908 9C174.756 10.008 173.364 10.512 171.732 10.512L163.452 9.576C163.452 9.912 163.332 11.4 163.092 14.04C162.42 20.52 162.084 27.024 162.084 33.552C162.084 40.08 162.588 46.608 163.596 53.136C162.012 53.712 160.356 54 158.628 54C156.9 54 155.412 53.52 154.164 52.56C152.916 51.552 152.292 50.064 152.292 48.096C152.292 46.08 152.532 42.552 153.012 37.512C153.492 32.472 153.732 27.576 153.732 22.824C153.732 18.024 153.492 13.56 153.012 9.432C147.204 9.72 142.668 10.536 139.404 11.88C138.828 10.776 138.54 9.552 138.54 8.208C138.54 6.816 139.092 5.544 140.196 4.392C141.3 3.24 142.692 2.664 144.372 2.664ZM192.234 53.136C190.746 53.712 189.162 54 187.482 54C185.802 54 184.434 53.616 183.378 52.848C182.37 52.032 181.866 50.928 181.866 49.536C181.866 48.096 182.082 45.504 182.514 41.76C182.946 38.016 183.162 34.392 183.162 30.888C183.162 27.336 182.61 23.184 181.506 18.432C183.042 17.856 184.554 17.568 186.042 17.568C187.53 17.568 188.802 18.072 189.858 19.08C190.962 20.088 191.514 21.432 191.514 23.112C191.514 23.976 191.37 25.272 191.082 27C190.794 28.68 190.626 29.952 190.578 30.816C192.45 26.544 194.658 23.208 197.202 20.808C199.794 18.36 202.362 17.136 204.906 17.136C206.682 17.136 208.098 17.76 209.154 19.008C210.21 20.256 210.738 21.84 210.738 23.76C210.738 25.632 210.258 27.168 209.298 28.368C208.338 29.52 207.138 30.096 205.698 30.096C204.306 30.096 203.178 29.952 202.314 29.664C202.458 29.088 202.53 28.56 202.53 28.08C202.53 26.112 201.834 25.128 200.442 25.128C198.33 25.128 196.338 27.264 194.466 31.536C192.642 35.76 191.418 39.72 190.794 43.416C191.034 47.016 191.514 50.256 192.234 53.136ZM247.461 20.088C246.165 25.608 245.517 31.152 245.517 36.72C245.517 42.24 246.141 47.712 247.389 53.136C245.661 53.712 243.885 54 242.061 54C240.237 54 238.965 53.472 238.245 52.416C237.525 51.312 237.165 49.752 237.165 47.736C237.165 45.672 237.477 42.864 238.101 39.312C234.693 46.608 231.405 51.216 228.237 53.136C226.797 54 225.309 54.432 223.773 54.432C220.125 54.432 217.293 53.088 215.277 50.4C213.261 47.664 212.253 44.28 212.253 40.248C212.253 34.104 213.957 28.728 217.365 24.12C220.773 19.464 225.189 17.136 230.613 17.136C236.085 17.136 241.701 18.12 247.461 20.088ZM238.029 24.408C235.485 23.64 233.325 23.256 231.549 23.256C227.949 23.256 225.261 24.048 223.485 25.632C221.853 29.664 221.037 33.768 221.037 37.944C221.037 40.152 221.373 42.384 222.045 44.64C222.765 46.896 223.845 48.024 225.285 48.024C226.965 48.024 229.125 45.552 231.765 40.608C234.405 35.664 236.493 30.264 238.029 24.408ZM281.943 42.624C280.263 45.888 278.151 48.672 275.607 50.976C273.063 53.28 270.519 54.432 267.975 54.432C265.431 54.432 263.463 53.568 262.071 51.84C260.727 50.064 259.767 47.808 259.191 45.072C258.615 42.288 258.087 39.432 257.607 36.504C257.175 33.576 256.407 30.72 255.303 27.936C254.199 25.152 252.687 23.064 250.767 21.672C251.391 20.52 252.327 19.56 253.575 18.792C254.823 17.976 256.167 17.568 257.607 17.568C259.863 17.568 261.687 19.032 263.079 21.96C264.471 24.84 265.359 28.032 265.743 31.536C266.175 35.04 266.631 38.448 267.111 41.76C267.639 45.024 268.239 46.896 268.911 47.376C270.543 47.28 271.959 46.248 273.159 44.28C274.407 42.264 275.319 39.84 275.895 37.008C276.951 31.824 277.479 27.768 277.479 24.84C277.479 21.912 277.335 19.656 277.047 18.072C278.727 17.736 280.167 17.568 281.367 17.568C285.495 17.568 287.559 19.536 287.559 23.472C287.559 25.968 287.031 28.968 285.975 32.472C284.967 35.928 283.623 39.312 281.943 42.624ZM298.521 37.656C298.521 41.112 299.073 43.848 300.177 45.864C301.281 47.832 303.129 48.816 305.721 48.816C308.313 48.816 310.329 47.952 311.769 46.224C313.257 44.448 314.001 42.312 314.001 39.816C315.633 39.816 317.049 40.224 318.249 41.04C319.449 41.856 320.049 42.984 320.049 44.424C320.049 47.4 318.465 49.896 315.297 51.912C312.129 53.88 308.793 54.864 305.289 54.864C299.817 54.864 295.857 53.4 293.409 50.472C290.961 47.496 289.737 43.104 289.737 37.296C289.737 31.488 291.369 26.616 294.633 22.68C297.945 18.696 302.337 16.704 307.809 16.704C311.553 16.704 314.553 17.568 316.809 19.296C319.113 20.976 320.265 23.616 320.265 27.216C320.265 30.768 318.633 33.456 315.369 35.28C312.153 37.056 308.217 37.944 303.561 37.944C301.929 37.944 300.249 37.848 298.521 37.656ZM298.593 31.968C300.033 32.256 301.545 32.4 303.129 32.4C306.585 32.4 309.489 31.752 311.841 30.456C312.129 29.304 312.273 28.392 312.273 27.72C312.273 26.04 311.673 24.768 310.473 23.904C309.273 23.04 307.617 22.608 305.505 22.608C303.441 22.608 301.569 23.28 299.889 24.624C299.025 27.12 298.593 29.568 298.593 31.968ZM327.849 0.863997C329.385 0.287996 330.969 -4.29153e-06 332.601 -4.29153e-06C334.233 -4.29153e-06 335.577 0.551996 336.633 1.656C337.737 2.712 338.289 4.176 338.289 6.048C338.289 7.872 338.025 11.568 337.497 17.136C337.017 22.656 336.777 27 336.777 30.168C336.777 37.992 337.329 45.648 338.433 53.136C336.897 53.712 335.265 54 333.537 54C329.841 54 327.993 52.2 327.993 48.6C327.993 46.872 328.257 43.488 328.785 38.448C329.313 33.36 329.577 29.28 329.577 26.208C329.577 15.984 329.001 7.536 327.849 0.863997ZM352.8 40.896C352.656 41.568 352.584 42.12 352.584 42.552C352.584 44.52 353.16 46.032 354.312 47.088C355.512 48.144 357.096 48.672 359.064 48.672C361.08 48.672 362.736 48.312 364.032 47.592C365.376 46.824 366.048 45.696 366.048 44.208C366.048 42.72 365.328 41.544 363.888 40.68C362.496 39.768 360.792 39.048 358.776 38.52C356.808 37.992 354.816 37.416 352.8 36.792C350.784 36.12 349.056 35.088 347.616 33.696C346.224 32.304 345.528 30.552 345.528 28.44C345.528 25.128 347.28 22.344 350.784 20.088C354.288 17.832 357.96 16.704 361.8 16.704C366.024 16.704 369.24 17.568 371.448 19.296C372.744 20.304 373.392 21.648 373.392 23.328C373.392 24.96 372.744 26.304 371.448 27.36C370.2 28.368 368.664 28.872 366.84 28.872C366.456 28.872 365.976 28.824 365.4 28.728C365.544 28.104 365.616 27.552 365.616 27.072C365.616 25.68 365.088 24.624 364.032 23.904C362.976 23.184 361.536 22.824 359.712 22.824C357.936 22.824 356.304 23.184 354.816 23.904C354.24 24.672 353.952 25.656 353.952 26.856C353.952 28.056 354.648 29.04 356.04 29.808C357.432 30.528 359.112 31.176 361.08 31.752C363.096 32.28 365.112 32.904 367.128 33.624C369.144 34.296 370.848 35.376 372.24 36.864C373.632 38.304 374.328 40.128 374.328 42.336C374.328 45.936 372.528 48.936 368.928 51.336C365.376 53.688 361.704 54.864 357.912 54.864C354.12 54.864 350.976 54.192 348.48 52.848C346.032 51.456 344.808 49.368 344.808 46.584C344.808 44.856 345.432 43.464 346.68 42.408C347.976 41.304 349.536 40.752 351.36 40.752C351.744 40.752 352.224 40.8 352.8 40.896ZM380.31 44.352C381.846 43.536 383.406 43.128 384.99 43.128C388.542 43.128 390.318 44.784 390.318 48.096C390.318 49.872 389.718 51.384 388.518 52.632C387.318 53.832 385.878 54.432 384.198 54.432C382.518 54.432 381.222 53.952 380.31 52.992C379.446 52.032 379.014 50.736 379.014 49.104C379.014 47.424 379.446 45.84 380.31 44.352Z" fill="#EEDBDB"/>
</g>
<path d="M113.685 76.728H115.557V65.76H111.861V69.192H110.397V64.488H122.589V69.192H121.125V65.76H117.501V76.728H119.373V78H113.685V76.728ZM130.043 68.448C130.651 68.448 131.291 68.608 131.963 68.928L131.531 70.536C130.987 70.184 130.435 70.008 129.875 70.008C129.235 70.008 128.699 70.272 128.267 70.8C127.851 71.312 127.643 72.024 127.643 72.936L127.619 76.728H129.299V78H124.043V76.728H125.867V69.84H124.043V68.568H127.619V70.296C128.131 69.064 128.939 68.448 130.043 68.448ZM143.045 76.728V78H139.997L139.901 77.16C139.389 77.544 138.877 77.824 138.365 78C137.853 78.176 137.277 78.264 136.637 78.264C135.677 78.264 134.893 78 134.285 77.472C133.693 76.928 133.397 76.256 133.397 75.456C133.397 74.432 133.741 73.688 134.429 73.224C135.133 72.744 136.053 72.504 137.189 72.504C138.005 72.504 138.877 72.608 139.805 72.816V71.832C139.805 71.112 139.605 70.568 139.205 70.2C138.821 69.832 138.277 69.648 137.573 69.648C137.109 69.648 136.573 69.728 135.965 69.888C135.373 70.032 134.829 70.24 134.333 70.512L133.805 69.36C134.333 69.024 134.941 68.768 135.629 68.592C136.333 68.416 136.989 68.328 137.597 68.328C138.829 68.328 139.797 68.632 140.501 69.24C141.205 69.832 141.557 70.64 141.557 71.664V76.728H143.045ZM135.077 75.36C135.077 75.856 135.237 76.264 135.557 76.584C135.893 76.888 136.341 77.04 136.901 77.04C137.845 77.04 138.813 76.696 139.805 76.008V73.848C138.957 73.656 138.125 73.56 137.309 73.56C136.669 73.56 136.133 73.704 135.701 73.992C135.285 74.264 135.077 74.72 135.077 75.36ZM145.182 69.84H143.574V68.568H148.614V69.84H147.078L149.718 76.176L152.334 69.84H150.822V68.568H155.574V69.84H154.062L150.39 78H148.782L145.182 69.84ZM165.958 73.656H158.182C158.294 74.664 158.654 75.464 159.262 76.056C159.87 76.632 160.646 76.92 161.59 76.92C162.902 76.92 164.094 76.416 165.166 75.408L165.79 76.488C165.326 77.032 164.742 77.472 164.038 77.808C163.334 78.128 162.542 78.288 161.662 78.288C160.67 78.288 159.766 78.08 158.95 77.664C158.134 77.248 157.494 76.664 157.03 75.912C156.566 75.144 156.334 74.272 156.334 73.296C156.334 72.304 156.55 71.432 156.982 70.68C157.43 69.912 158.03 69.328 158.782 68.928C159.55 68.512 160.398 68.304 161.326 68.304C162.766 68.304 163.894 68.744 164.71 69.624C165.542 70.504 165.958 71.696 165.958 73.2V73.656ZM164.206 72.552C164.206 71.64 163.934 70.92 163.39 70.392C162.862 69.864 162.174 69.6 161.326 69.6C160.494 69.6 159.79 69.864 159.214 70.392C158.638 70.92 158.294 71.64 158.182 72.552H164.206ZM167.445 76.728H169.197V65.496H167.493V64.248H170.973V76.728H172.509V78H167.445V76.728ZM183.344 66.504C182.976 66.504 182.664 66.392 182.408 66.168C182.168 65.928 182.048 65.632 182.048 65.28C182.048 64.928 182.168 64.64 182.408 64.416C182.664 64.176 182.976 64.056 183.344 64.056C183.712 64.056 184.016 64.176 184.256 64.416C184.512 64.64 184.64 64.928 184.64 65.28C184.64 65.632 184.512 65.928 184.256 66.168C184.016 66.392 183.712 66.504 183.344 66.504ZM180.872 76.728H182.696V69.84H180.896V68.568H184.448V76.728H186.152V78H180.872V76.728ZM199.102 76.728V78H194.038V76.728H195.598V71.808C195.598 71.152 195.438 70.64 195.118 70.272C194.798 69.904 194.358 69.72 193.798 69.72C193.334 69.72 192.862 69.808 192.382 69.984C191.918 70.144 191.406 70.392 190.846 70.728V76.728H192.55V78H187.27V76.728H189.094V69.84H187.27V68.568H190.846V69.504C192.094 68.72 193.23 68.328 194.254 68.328C195.15 68.328 195.886 68.608 196.462 69.168C197.054 69.712 197.35 70.48 197.35 71.472V76.728H199.102ZM221.045 74.352C220.037 76.928 217.925 78.232 214.709 78.264C213.317 78.264 212.085 77.968 211.013 77.376C209.941 76.768 209.109 75.936 208.517 74.88C207.925 73.824 207.629 72.608 207.629 71.232C207.629 69.888 207.917 68.688 208.493 67.632C209.085 66.576 209.917 65.752 210.989 65.16C212.077 64.552 213.325 64.248 214.733 64.248C215.741 64.248 216.645 64.44 217.445 64.824C218.245 65.192 218.869 65.704 219.317 66.36V64.488H220.757V68.568L219.461 68.616C218.965 67.592 218.341 66.848 217.589 66.384C216.837 65.92 215.917 65.688 214.829 65.688C213.789 65.688 212.869 65.936 212.069 66.432C211.285 66.912 210.677 67.568 210.245 68.4C209.813 69.232 209.597 70.168 209.597 71.208C209.597 72.328 209.821 73.312 210.269 74.16C210.717 75.008 211.341 75.664 212.141 76.128C212.941 76.592 213.837 76.824 214.829 76.824C215.917 76.824 216.885 76.568 217.733 76.056C218.597 75.544 219.221 74.736 219.605 73.632L221.045 74.352ZM228.102 78.288C227.094 78.288 226.206 78.08 225.438 77.664C224.67 77.248 224.07 76.664 223.638 75.912C223.222 75.144 223.014 74.264 223.014 73.272C223.014 72.28 223.222 71.408 223.638 70.656C224.07 69.904 224.67 69.328 225.438 68.928C226.206 68.512 227.094 68.304 228.102 68.304C229.11 68.304 229.998 68.512 230.766 68.928C231.55 69.328 232.158 69.904 232.59 70.656C233.022 71.408 233.238 72.272 233.238 73.248C233.238 74.24 233.022 75.12 232.59 75.888C232.158 76.656 231.55 77.248 230.766 77.664C229.998 78.08 229.11 78.288 228.102 78.288ZM228.102 76.896C229.094 76.896 229.894 76.568 230.502 75.912C231.11 75.24 231.414 74.352 231.414 73.248C231.414 72.176 231.11 71.32 230.502 70.68C229.894 70.024 229.094 69.696 228.102 69.696C227.11 69.696 226.318 70.024 225.726 70.68C225.134 71.336 224.838 72.2 224.838 73.272C224.838 74.36 225.134 75.24 225.726 75.912C226.334 76.568 227.126 76.896 228.102 76.896ZM252.668 76.728V78H247.604V76.728H249.188V71.808C249.188 71.152 249.028 70.64 248.708 70.272C248.388 69.904 247.948 69.72 247.388 69.72C246.412 69.72 245.388 70.08 244.316 70.8C244.364 71.04 244.388 71.28 244.388 71.52V76.728H246.116V78H241.052V76.728H242.636V71.808C242.636 71.152 242.476 70.64 242.156 70.272C241.836 69.904 241.396 69.72 240.836 69.72C240.02 69.72 239.052 70.04 237.932 70.68V76.728H239.636V78H234.356V76.728H236.18V69.84H234.356V68.568H237.932V69.48C239.148 68.712 240.268 68.328 241.292 68.328C241.916 68.328 242.46 68.464 242.924 68.736C243.388 68.992 243.74 69.352 243.98 69.816C244.684 69.336 245.34 68.968 245.948 68.712C246.556 68.456 247.188 68.328 247.844 68.328C248.74 68.328 249.476 68.608 250.052 69.168C250.644 69.712 250.94 70.48 250.94 71.472V76.728H252.668ZM253.703 76.728H255.575V69.84H253.727V68.568H255.575V66.552C255.575 65.656 255.807 64.96 256.271 64.464C256.751 63.952 257.463 63.696 258.407 63.696C259.127 63.696 259.727 63.872 260.207 64.224C260.703 64.576 260.975 65.136 261.023 65.904L259.655 66.288C259.575 65.84 259.447 65.504 259.271 65.28C259.111 65.056 258.847 64.944 258.479 64.944C257.727 64.944 257.351 65.488 257.351 66.576V68.568H260.231V69.84H257.351V76.728H259.775V78H253.703V76.728ZM266.001 78.288C264.993 78.288 264.105 78.08 263.337 77.664C262.569 77.248 261.969 76.664 261.537 75.912C261.121 75.144 260.913 74.264 260.913 73.272C260.913 72.28 261.121 71.408 261.537 70.656C261.969 69.904 262.569 69.328 263.337 68.928C264.105 68.512 264.993 68.304 266.001 68.304C267.009 68.304 267.897 68.512 268.665 68.928C269.449 69.328 270.057 69.904 270.489 70.656C270.921 71.408 271.137 72.272 271.137 73.248C271.137 74.24 270.921 75.12 270.489 75.888C270.057 76.656 269.449 77.248 268.665 77.664C267.897 78.08 267.009 78.288 266.001 78.288ZM266.001 76.896C266.993 76.896 267.793 76.568 268.401 75.912C269.009 75.24 269.313 74.352 269.313 73.248C269.313 72.176 269.009 71.32 268.401 70.68C267.793 70.024 266.993 69.696 266.001 69.696C265.009 69.696 264.217 70.024 263.625 70.68C263.033 71.336 262.737 72.2 262.737 73.272C262.737 74.36 263.033 75.24 263.625 75.912C264.233 76.568 265.025 76.896 266.001 76.896ZM278.567 68.448C279.175 68.448 279.815 68.608 280.487 68.928L280.055 70.536C279.511 70.184 278.959 70.008 278.399 70.008C277.759 70.008 277.223 70.272 276.791 70.8C276.375 71.312 276.167 72.024 276.167 72.936L276.143 76.728H277.823V78H272.567V76.728H274.391V69.84H272.567V68.568H276.143V70.296C276.655 69.064 277.463 68.448 278.567 68.448ZM285.76 78C283.936 78 283.024 77.072 283.024 75.216V69.84H281.464V68.568H283.024V65.352L284.8 64.656V68.568H287.296V69.84H284.8V75.12C284.8 75.712 284.896 76.128 285.088 76.368C285.28 76.608 285.608 76.728 286.072 76.728H287.512V78H285.76Z" fill="#EEDBDB"/>
<defs>
<filter id="filter0_d_17_9" x="4.41376" y="0" width="389.904" height="62.864" filterUnits="userSpaceOnUse" color-interpolation-filters="sRGB">
<feFlood flood-opacity="0" result="BackgroundImageFix"/>
<feColorMatrix in="SourceAlpha" type="matrix" values="0 0 0 0 0 0 0 0 0 0 0 0 0 0 0 0 0 0 127 0" result="hardAlpha"/>
<feOffset dy="4"/>
<feGaussianBlur stdDeviation="2"/>
<feComposite in2="hardAlpha" operator="out"/>
<feColorMatrix type="matrix" values="0 0 0 0 0 0 0 0 0 0 0 0 0 0 0 0 0 0 0.25 0"/>
<feBlend mode="normal" in2="BackgroundImageFix" result="effect1_dropShadow_17_9"/>
<feBlend mode="normal" in="SourceGraphic" in2="effect1_dropShadow_17_9" result="shape"/>
</filter>
</defs>
</svg>
