<svg width="449" height="82" viewBox="0 0 449 82" fill="none" xmlns="http://www.w3.org/2000/svg">
<g filter="url(#filter0_d_12_8)">
<path d="M91.375 63.3594C91.3438 63.4219 91.1562 63.6875 90.8125 64.1562C90.4688 64.625 89.9688 65.2031 89.3125 65.8906C88.6875 66.5469 87.8906 67.2656 86.9219 68.0469C85.9844 68.7969 84.8594 69.5 83.5469 70.1562C82.2656 70.7812 80.8125 71.3125 79.1875 71.75C77.5625 72.1875 75.7656 72.4062 73.7969 72.4062C70.7344 72.4062 67.8594 72.0156 65.1719 71.2344C62.4844 70.4844 59.8906 69.5156 57.3906 68.3281C54.9219 67.1406 52.4844 65.8281 50.0781 64.3906C47.6719 62.9531 45.2188 61.5469 42.7188 60.1719C41.1875 62.7344 39.4219 64.8281 37.4219 66.4531C35.4531 68.0469 33.3906 69.2969 31.2344 70.2031C29.1094 71.1094 26.9844 71.7188 24.8594 72.0312C22.7656 72.375 20.8281 72.5469 19.0469 72.5469C17.3281 72.5469 15.5781 72.3594 13.7969 71.9844C12.0469 71.6406 10.4531 71.0625 9.01562 70.25C7.60938 69.4062 6.45312 68.3125 5.54688 66.9688C4.64062 65.625 4.1875 63.9531 4.1875 61.9531C4.1875 60.0781 4.625 58.3906 5.5 56.8906C6.34375 55.3594 7.51562 54.0625 9.01562 53C10.5469 51.9375 12.3438 51.125 14.4062 50.5625C16.4688 49.9688 18.6875 49.6719 21.0625 49.6719C22.8438 49.6719 24.6094 49.8281 26.3594 50.1406C28.1406 50.4531 29.875 50.875 31.5625 51.4062C33.25 51.9375 34.8906 52.5469 36.4844 53.2344C38.0781 53.8906 39.5781 54.5625 40.9844 55.25C41.1719 54.6875 41.3281 54.125 41.4531 53.5625C41.6094 53 41.7344 52.3906 41.8281 51.7344C41.9531 51.0469 42.0312 50.2969 42.0625 49.4844C42.125 48.6406 42.1562 47.6719 42.1562 46.5781C42.1562 45.5469 42.125 44.5625 42.0625 43.625C42.0312 42.6875 41.9844 41.6719 41.9219 40.5781C41.8906 39.4531 41.8438 38.2031 41.7812 36.8281C41.75 35.4219 41.7344 33.75 41.7344 31.8125C41.7344 27.3438 42.1719 23.2812 43.0469 19.625C43.9219 15.9375 45.2188 12.7812 46.9375 10.1562C48.6562 7.53125 50.7969 5.5 53.3594 4.0625C55.9219 2.59375 58.9062 1.85938 62.3125 1.85938C64.375 1.85938 66.3281 2.1875 68.1719 2.84375C70.0469 3.5 71.6875 4.4375 73.0938 5.65625C74.5312 6.875 75.6562 8.32812 76.4688 10.0156C77.3125 11.7031 77.7344 13.5781 77.7344 15.6406C77.7344 16.7656 77.5781 17.9375 77.2656 19.1562C76.9531 20.375 76.5156 21.5 75.9531 22.5312C75.4219 23.5312 74.7969 24.3594 74.0781 25.0156C73.3906 25.6719 72.6562 26 71.875 26C71.4375 26 71.0469 25.875 70.7031 25.625C70.3594 25.375 70.1875 24.9844 70.1875 24.4531C70.1875 24.0781 70.2656 23.7656 70.4219 23.5156C70.6094 23.2344 70.8281 22.9844 71.0781 22.7656C71.9844 21.9531 72.7188 20.9531 73.2812 19.7656C73.875 18.5781 74.1719 17.2031 74.1719 15.6406C74.1719 14.0781 73.8438 12.6719 73.1875 11.4219C72.5625 10.1406 71.7031 9.0625 70.6094 8.1875C69.5469 7.28125 68.2969 6.59375 66.8594 6.125C65.4531 5.625 63.9688 5.375 62.4062 5.375C59.4688 5.375 56.9219 6.01563 54.7656 7.29688C52.6094 8.57812 50.8281 10.3906 49.4219 12.7344C48.0156 15.0469 46.9688 17.8594 46.2812 21.1719C45.625 24.4531 45.2969 28.1094 45.2969 32.1406C45.2969 34.0781 45.3125 35.7812 45.3438 37.25C45.4062 38.7188 45.4531 40.0625 45.4844 41.2812C45.5469 42.5 45.5938 43.6562 45.625 44.75C45.6875 45.8125 45.7188 46.9062 45.7188 48.0312C45.7188 48.6875 45.6875 49.4062 45.625 50.1875C45.5625 50.9375 45.4688 51.7188 45.3438 52.5312C45.2188 53.3125 45.0469 54.0938 44.8281 54.875C44.6406 55.625 44.4219 56.3125 44.1719 56.9375C46.5469 58.1875 48.8906 59.5156 51.2031 60.9219C53.5156 62.3281 55.8594 63.625 58.2344 64.8125C60.6406 65.9688 63.1094 66.9375 65.6406 67.7188C68.2031 68.4688 70.9062 68.8438 73.75 68.8438C76.25 68.8438 78.4062 68.4688 80.2188 67.7188C82.0625 66.9688 83.5781 66.1406 84.7656 65.2344C85.9844 64.2969 86.8906 63.4531 87.4844 62.7031C88.0781 61.9219 88.375 61.5156 88.375 61.4844C88.7188 60.9219 89.2188 60.6406 89.875 60.6406C90.4062 60.6406 90.8281 60.8281 91.1406 61.2031C91.4844 61.5781 91.6562 61.9844 91.6562 62.4219C91.6562 62.7656 91.5625 63.0781 91.375 63.3594ZM39.625 58.4375C38.2812 57.7812 36.8594 57.1406 35.3594 56.5156C33.8906 55.8594 32.375 55.2812 30.8125 54.7812C29.25 54.2812 27.6406 53.8906 25.9844 53.6094C24.3594 53.2969 22.7344 53.1406 21.1094 53.1406C19.2656 53.1406 17.5312 53.3438 15.9062 53.75C14.2812 54.125 12.8594 54.6875 11.6406 55.4375C10.4219 56.1875 9.45312 57.0938 8.73438 58.1562C8.04688 59.2188 7.70312 60.4219 7.70312 61.7656C7.70312 63.0156 8.01562 64.1094 8.64062 65.0469C9.26562 65.9531 10.0938 66.7188 11.125 67.3438C12.1875 67.9375 13.4062 68.3906 14.7812 68.7031C16.1562 68.9844 17.5938 69.125 19.0938 69.125C20.9062 69.125 22.7812 68.9844 24.7188 68.7031C26.6562 68.3906 28.5312 67.8438 30.3438 67.0625C32.1562 66.25 33.8594 65.1562 35.4531 63.7812C37.0469 62.375 38.4375 60.5938 39.625 58.4375ZM110.875 65.75C109.781 67.5312 108.5 68.9375 107.031 69.9688C105.594 71 104.141 71.5156 102.672 71.5156C101.484 71.5156 100.422 71.2969 99.4844 70.8594C98.5469 70.4219 97.7344 69.8125 97.0469 69.0312C96.3594 68.2188 95.8281 67.25 95.4531 66.125C95.1094 65 94.9375 63.7344 94.9375 62.3281C94.9375 60.1406 95.1406 58.2031 95.5469 56.5156C95.9844 54.8281 96.4531 53.4219 96.9531 52.2969C97.4531 51.1406 97.9219 50.2656 98.3594 49.6719C98.7969 49.0781 99.0156 48.7812 99.0156 48.7812C99.1719 48.5938 99.3594 48.4531 99.5781 48.3594C99.8281 48.2656 100.078 48.2188 100.328 48.2188C100.828 48.2188 101.234 48.4062 101.547 48.7812C101.891 49.125 102.062 49.5312 102.062 50C102.062 50.1875 102.016 50.375 101.922 50.5625C101.859 50.75 101.781 50.9375 101.688 51.125C101.531 51.4062 101.281 51.8438 100.938 52.4375C100.594 53 100.234 53.75 99.8594 54.6875C99.4844 55.625 99.1562 56.7344 98.875 58.0156C98.5938 59.2656 98.4531 60.7031 98.4531 62.3281C98.4531 64.1719 98.8125 65.5781 99.5312 66.5469C100.281 67.4844 101.328 67.9531 102.672 67.9531C103.234 67.9531 103.875 67.7812 104.594 67.4375C105.344 67.0625 106.062 66.5 106.75 65.75C107.469 65 108.094 64.0469 108.625 62.8906C109.156 61.7344 109.5 60.375 109.656 58.8125L110.359 50.75C110.422 50.2812 110.625 49.8906 110.969 49.5781C111.312 49.2656 111.719 49.1094 112.188 49.1094C112.719 49.1094 113.141 49.3125 113.453 49.7188C113.766 50.0938 113.922 50.5312 113.922 51.0312L113.312 58.8125C113.25 59.4688 113.266 60.3281 113.359 61.3906C113.484 62.4531 113.719 63.5 114.062 64.5312C114.406 65.5625 114.922 66.4531 115.609 67.2031C116.297 67.9219 117.203 68.2812 118.328 68.2812C119.141 68.2812 119.938 68.0781 120.719 67.6719C121.5 67.2344 122.25 66.6719 122.969 65.9844C123.688 65.2969 124.344 64.5312 124.938 63.6875C125.562 62.8125 126.125 61.9375 126.625 61.0625C127.156 60.1875 127.609 59.3594 127.984 58.5781C128.359 57.7656 128.672 57.0781 128.922 56.5156C129.078 56.1719 129.297 55.9062 129.578 55.7188C129.859 55.5312 130.172 55.4375 130.516 55.4375C131.078 55.4375 131.516 55.625 131.828 56C132.141 56.375 132.297 56.7812 132.297 57.2188C132.297 57.4688 132.25 57.7031 132.156 57.9219C132.031 58.1719 131.781 58.7031 131.406 59.5156C131.062 60.2969 130.594 61.2031 130 62.2344C129.438 63.2344 128.75 64.2969 127.938 65.4219C127.125 66.5469 126.219 67.5938 125.219 68.5625C124.219 69.5 123.125 70.2812 121.938 70.9062C120.781 71.5 119.531 71.7969 118.188 71.7969C116.344 71.7969 114.812 71.2812 113.594 70.25C112.375 69.1875 111.469 67.6875 110.875 65.75ZM156.906 44.4688C152.094 50.4062 147.703 56.6562 143.734 63.2188C144.828 64.8438 146.031 66.1875 147.344 67.25C148.656 68.3125 150.141 68.8438 151.797 68.8438C153.266 68.8438 154.656 68.4219 155.969 67.5781C157.281 66.7344 158.469 65.7031 159.531 64.4844C160.625 63.2344 161.562 61.9062 162.344 60.5C163.156 59.0625 163.781 57.7656 164.219 56.6094C164.531 55.8281 165.078 55.4375 165.859 55.4375C166.391 55.4375 166.812 55.625 167.125 56C167.469 56.3438 167.641 56.75 167.641 57.2188C167.641 57.375 167.609 57.5781 167.547 57.8281C167.578 57.7656 167.438 58.0781 167.125 58.7656C166.812 59.4531 166.344 60.3438 165.719 61.4375C165.094 62.5 164.328 63.6719 163.422 64.9531C162.516 66.2344 161.469 67.4375 160.281 68.5625C159.125 69.6562 157.828 70.5625 156.391 71.2812C154.953 72.0312 153.406 72.4062 151.75 72.4062C149.688 72.4062 147.828 71.8594 146.172 70.7656C144.547 69.6719 143.078 68.2812 141.766 66.5938C141.234 67.5312 140.719 68.4688 140.219 69.4062C139.719 70.3438 139.219 71.2812 138.719 72.2188C138.375 72.875 137.844 73.2031 137.125 73.2031C136.594 73.2031 136.156 73.0156 135.812 72.6406C135.5 72.2656 135.344 71.8594 135.344 71.4219C135.344 71.1719 135.422 70.8906 135.578 70.5781C136.203 69.3594 136.844 68.1406 137.5 66.9219C138.156 65.7031 138.844 64.5 139.562 63.3125C138.5 61.4688 137.594 59.5938 136.844 57.6875C136.094 55.75 135.5 53.9375 135.062 52.25L132.297 57.9688C131.953 58.6562 131.422 59 130.703 59C130.172 59 129.734 58.8125 129.391 58.4375C129.078 58.0625 128.922 57.6562 128.922 57.2188C128.922 56.9375 128.984 56.6875 129.109 56.4688L134.219 45.7812C134.375 45.5 134.594 45.2656 134.875 45.0781C135.156 44.8906 135.469 44.7969 135.812 44.7969C136.312 44.7969 136.719 44.9688 137.031 45.3125C137.344 45.625 137.531 46.0156 137.594 46.4844C137.625 46.9219 137.734 47.6094 137.922 48.5469C138.141 49.4844 138.422 50.5625 138.766 51.7812C139.141 52.9688 139.562 54.25 140.031 55.625C140.531 57 141.109 58.3594 141.766 59.7031C145.516 53.6094 149.656 47.7812 154.188 42.2188C154.5 41.8125 154.953 41.6094 155.547 41.6094C156.047 41.6094 156.469 41.7812 156.812 42.125C157.156 42.4688 157.328 42.875 157.328 43.3438C157.328 43.7812 157.188 44.1562 156.906 44.4688ZM265.609 5.75C266.047 5.75 266.453 5.92188 266.828 6.26562C267.234 6.57813 267.438 7 267.438 7.53125C267.438 8.1875 267.141 8.6875 266.547 9.03125C266.516 9.0625 266.078 9.35938 265.234 9.92188C264.422 10.4844 263.453 11.3594 262.328 12.5469C264.672 12.8281 267.062 12.9688 269.5 12.9688C271.875 12.9688 274.031 12.8125 275.969 12.5C277.938 12.1563 279.688 11.7031 281.219 11.1406C282.781 10.5469 284.125 9.85938 285.25 9.07812C286.406 8.29687 287.359 7.4375 288.109 6.5C288.297 6.28125 288.516 6.10938 288.766 5.98438C289.016 5.82813 289.281 5.75 289.562 5.75C290.062 5.75 290.469 5.9375 290.781 6.3125C291.125 6.6875 291.297 7.09375 291.297 7.53125C291.297 7.96875 291.188 8.3125 290.969 8.5625C290.219 9.5625 289.219 10.5469 287.969 11.5156C286.719 12.4531 285.203 13.2969 283.422 14.0469C281.641 14.7969 279.594 15.4062 277.281 15.875C274.969 16.3125 272.391 16.5312 269.547 16.5312C267.922 16.5312 266.297 16.4688 264.672 16.3438C263.047 16.1875 261.422 15.9844 259.797 15.7344C259.078 16.7656 258.406 17.9219 257.781 19.2031C257.188 20.4844 256.703 21.8906 256.328 23.4219C255.672 26.0469 255.297 28.8281 255.203 31.7656C255.141 34.7031 255.078 37.7031 255.016 40.7656C254.984 43.7969 254.844 46.8281 254.594 49.8594C254.344 52.8594 253.75 55.7656 252.812 58.5781C252.094 60.7031 251.125 62.6719 249.906 64.4844C248.719 66.2969 247.25 67.875 245.5 69.2188C243.781 70.5312 241.797 71.5625 239.547 72.3125C237.328 73.0938 234.828 73.4844 232.047 73.4844C227.484 73.4844 223.359 72.5781 219.672 70.7656C215.984 68.9531 212.781 66.0938 210.062 62.1875C209.969 62.0312 209.844 61.8125 209.688 61.5312C209.531 61.25 209.453 60.9688 209.453 60.6875C209.453 60.25 209.609 59.8281 209.922 59.4219C210.234 59.0156 210.672 58.8125 211.234 58.8125C211.578 58.8125 211.891 58.9062 212.172 59.0938C212.453 59.25 212.672 59.4531 212.828 59.7031C215.109 63.2031 217.781 65.7969 220.844 67.4844C223.906 69.1406 227.625 69.9688 232 69.9688C234.312 69.9688 236.391 69.6875 238.234 69.125C240.078 68.5312 241.703 67.7031 243.109 66.6406C244.547 65.5469 245.781 64.2188 246.812 62.6562C247.844 61.0938 248.703 59.3125 249.391 57.3125C250.141 55.125 250.609 52.6094 250.797 49.7656C251.016 46.8906 251.156 43.9062 251.219 40.8125C251.281 37.6875 251.391 34.5625 251.547 31.4375C251.734 28.3125 252.172 25.3594 252.859 22.5781C253.203 21.1094 253.656 19.75 254.219 18.5C254.781 17.25 255.375 16.0938 256 15.0312C251.812 14.1875 247.641 13.125 243.484 11.8438C239.359 10.5312 235.312 9.28125 231.344 8.09375C227.406 6.875 223.594 5.82813 219.906 4.95312C216.25 4.07812 212.797 3.64062 209.547 3.64062C206.578 3.64062 203.828 4.0625 201.297 4.90625C198.797 5.75 196.625 6.9375 194.781 8.46875C192.969 10 191.547 11.8438 190.516 14C189.516 16.1562 189.016 18.5469 189.016 21.1719C189.016 23.0781 189.344 24.8281 190 26.4219C190.688 28.0156 191.625 29.4062 192.812 30.5938C194 31.75 195.406 32.6562 197.031 33.3125C198.656 33.9688 200.438 34.2969 202.375 34.2969C204.406 34.2969 206.219 34 207.812 33.4062C209.406 32.7812 210.812 32.0156 212.031 31.1094C213.25 30.2031 214.281 29.2188 215.125 28.1562C216 27.0938 216.703 26.1094 217.234 25.2031C217.797 24.2656 218.203 23.5 218.453 22.9062C218.734 22.2812 218.875 21.9688 218.875 21.9688C219 21.625 219.219 21.3438 219.531 21.125C219.844 20.9062 220.188 20.7969 220.562 20.7969C221.094 20.7969 221.516 20.9844 221.828 21.3594C222.172 21.7031 222.344 22.1094 222.344 22.5781C222.344 22.6719 222.328 22.7656 222.297 22.8594C222.297 22.9219 222.281 23 222.25 23.0938C222.219 23.1562 222.047 23.5781 221.734 24.3594C221.422 25.1094 220.938 26.0312 220.281 27.125C219.625 28.1875 218.781 29.3438 217.75 30.5938C216.719 31.8438 215.469 33.0156 214 34.1094C212.531 35.1719 210.828 36.0625 208.891 36.7812C206.984 37.4688 204.797 37.8125 202.328 37.8125C199.953 37.8125 197.734 37.3906 195.672 36.5469C193.641 35.7031 191.859 34.5469 190.328 33.0781C188.828 31.6094 187.641 29.8594 186.766 27.8281C185.922 25.7969 185.5 23.5781 185.5 21.1719C185.5 17.9844 186.109 15.1094 187.328 12.5469C188.547 9.95313 190.234 7.73437 192.391 5.89062C194.547 4.04688 197.094 2.625 200.031 1.625C202.969 0.625 206.156 0.125 209.594 0.125C212.094 0.125 214.609 0.34375 217.141 0.78125C219.672 1.21875 222.234 1.79688 224.828 2.51562C227.453 3.23437 230.109 4.03125 232.797 4.90625C235.484 5.78125 238.203 6.67188 240.953 7.57812C243.734 8.45313 246.547 9.28125 249.391 10.0625C252.266 10.8438 255.188 11.4844 258.156 11.9844C258.938 11.0156 259.703 10.1562 260.453 9.40625C261.234 8.65625 261.922 8.04688 262.516 7.57812C263.141 7.07812 263.656 6.70312 264.062 6.45312C264.469 6.17188 264.703 6.01563 264.766 5.98438C265.078 5.82813 265.359 5.75 265.609 5.75ZM273.672 51.7344C273.547 52.5781 273.391 53.375 273.203 54.125C273.016 54.8438 272.828 55.4844 272.641 56.0469C272.484 56.5781 272.344 57.0156 272.219 57.3594C272.094 57.7031 272.016 57.8906 271.984 57.9219C271.672 58.6406 271.125 59 270.344 59C269.906 59 269.5 58.8438 269.125 58.5312C268.75 58.1875 268.562 57.7656 268.562 57.2656C268.562 57.0781 268.594 56.9375 268.656 56.8438C268.719 56.75 268.812 56.5625 268.938 56.2812C269.062 56 269.219 55.5312 269.406 54.875C269.594 54.2188 269.828 53.2031 270.109 51.8281C269.578 51.8281 269.031 51.8125 268.469 51.7812C267.906 51.75 267.391 51.6406 266.922 51.4531C266.422 51.2656 266.016 50.9688 265.703 50.5625C265.391 50.1562 265.234 49.5938 265.234 48.875C265.234 48.3438 265.391 47.625 265.703 46.7188C265.984 45.8125 266.375 44.9219 266.875 44.0469C267.375 43.1719 267.938 42.4219 268.562 41.7969C269.188 41.1406 269.812 40.8125 270.438 40.8125C271.156 40.8125 271.734 41.0781 272.172 41.6094C272.641 42.1406 273 42.7969 273.25 43.5781C273.5 44.3281 273.672 45.125 273.766 45.9688C273.891 46.8125 273.953 47.5469 273.953 48.1719C274.484 48.1719 275 48.1719 275.5 48.1719C276.031 48.1406 276.531 48.125 277 48.125C278.781 48.125 280.141 48.5156 281.078 49.2969C282.016 50.0781 282.484 51.3594 282.484 53.1406C282.484 53.8594 282.438 54.6094 282.344 55.3906C282.25 56.1719 282.141 56.9844 282.016 57.8281C281.891 58.6406 281.781 59.4531 281.688 60.2656C281.594 61.0781 281.547 61.875 281.547 62.6562C281.547 63.7812 281.703 64.7188 282.016 65.4688C282.328 66.1875 282.719 66.7656 283.188 67.2031C283.656 67.6406 284.156 67.9531 284.688 68.1406C285.219 68.2969 285.703 68.375 286.141 68.375C287.484 68.375 288.75 67.9375 289.938 67.0625C291.125 66.1875 292.219 65.1406 293.219 63.9219C294.219 62.6719 295.109 61.3594 295.891 59.9844C296.703 58.6094 297.375 57.4062 297.906 56.375C298.062 56.0938 298.281 55.875 298.562 55.7188C298.844 55.5625 299.141 55.4844 299.453 55.4844C300.016 55.4844 300.453 55.6719 300.766 56.0469C301.078 56.3906 301.234 56.7812 301.234 57.2188C301.234 57.5312 301.172 57.8125 301.047 58.0625C300.328 59.3438 299.484 60.7969 298.516 62.4219C297.578 64.0156 296.5 65.5156 295.281 66.9219C294.062 68.3281 292.688 69.5156 291.156 70.4844C289.656 71.4531 288 71.9375 286.188 71.9375C285.062 71.9375 284 71.7188 283 71.2812C282 70.875 281.125 70.2812 280.375 69.5C279.656 68.6875 279.078 67.7031 278.641 66.5469C278.203 65.3594 277.984 64.0312 277.984 62.5625C277.984 61 278.141 59.4531 278.453 57.9219C278.766 56.3594 278.922 54.875 278.922 53.4688C278.922 52.875 278.781 52.4375 278.5 52.1562C278.25 51.8438 277.672 51.6875 276.766 51.6875C276.328 51.6875 275.844 51.6875 275.312 51.6875C274.812 51.6875 274.266 51.7031 273.672 51.7344ZM270.531 48.2656C270.531 48.0469 270.516 47.7656 270.484 47.4219C270.484 47.0469 270.453 46.6875 270.391 46.3438C270.359 46 270.297 45.7031 270.203 45.4531C270.141 45.2031 270.062 45.0781 269.969 45.0781C269.875 45.0781 269.75 45.2031 269.594 45.4531C269.469 45.6719 269.328 45.9531 269.172 46.2969C269.016 46.6094 268.875 46.9531 268.75 47.3281C268.625 47.7031 268.531 48.0156 268.469 48.2656H270.531ZM334.141 57.9219C334.016 58.1719 333.75 58.7031 333.344 59.5156C332.969 60.2969 332.469 61.2031 331.844 62.2344C331.25 63.2656 330.547 64.3438 329.734 65.4688C328.922 66.5938 328.016 67.625 327.016 68.5625C326.016 69.5 324.938 70.2812 323.781 70.9062C322.625 71.5 321.406 71.7969 320.125 71.7969C318.312 71.7969 316.781 71.2188 315.531 70.0625C314.312 68.9062 313.422 67.4531 312.859 65.7031C311.797 67.4844 310.531 68.9062 309.062 69.9688C307.594 71 306.125 71.5156 304.656 71.5156C303.5 71.5156 302.453 71.3125 301.516 70.9062C300.578 70.4688 299.781 69.875 299.125 69.125C298.469 68.3438 297.953 67.4375 297.578 66.4062C297.234 65.375 297.062 64.25 297.062 63.0312C297.062 60.5938 297.469 58.4531 298.281 56.6094C299.125 54.7344 300.188 53.1719 301.469 51.9219C302.75 50.6719 304.156 49.7344 305.688 49.1094C307.25 48.4844 308.75 48.1719 310.188 48.1719C311.156 48.1719 312.047 48.3125 312.859 48.5938C313.672 48.8438 314.359 49.125 314.922 49.4375C315.516 49.75 315.969 50.0469 316.281 50.3281C316.594 50.5781 316.766 50.7188 316.797 50.75C317.141 51.1562 317.312 51.5781 317.312 52.0156C317.312 52.4844 317.141 52.9062 316.797 53.2812C316.453 53.625 316.047 53.7969 315.578 53.7969C315.078 53.7969 314.656 53.625 314.312 53.2812C314.25 53.2188 314.109 53.1094 313.891 52.9531C313.672 52.7656 313.375 52.5781 313 52.3906C312.625 52.2031 312.172 52.0469 311.641 51.9219C311.141 51.7656 310.562 51.6875 309.906 51.6875C308.938 51.6875 307.906 51.9062 306.812 52.3438C305.719 52.7812 304.719 53.4688 303.812 54.4062C302.906 55.3125 302.141 56.4688 301.516 57.875C300.922 59.25 300.625 60.8906 300.625 62.7969C300.625 63.3906 300.688 64 300.812 64.625C300.938 65.2188 301.156 65.7656 301.469 66.2656C301.781 66.7656 302.203 67.1719 302.734 67.4844C303.266 67.7969 303.922 67.9531 304.703 67.9531C305.266 67.9531 305.906 67.7656 306.625 67.3906C307.375 67.0156 308.078 66.4375 308.734 65.6562C309.422 64.875 310.031 63.8906 310.562 62.7031C311.125 61.5156 311.516 60.1094 311.734 58.4844C311.797 58.0469 312 57.6875 312.344 57.4062C312.688 57.0938 313.094 56.9375 313.562 56.9375C314 56.9375 314.375 57.1094 314.688 57.4531C315.031 57.7969 315.219 58.1875 315.25 58.625C315.281 59.2188 315.344 60.0625 315.438 61.1562C315.531 62.2188 315.734 63.2812 316.047 64.3438C316.391 65.4062 316.891 66.3281 317.547 67.1094C318.203 67.8906 319.109 68.2812 320.266 68.2812C321.016 68.2812 321.75 68.0781 322.469 67.6719C323.219 67.2656 323.938 66.7344 324.625 66.0781C325.344 65.3906 326.016 64.625 326.641 63.7812C327.297 62.9062 327.891 62.0312 328.422 61.1562C328.953 60.2812 329.422 59.4375 329.828 58.625C330.234 57.8125 330.578 57.1094 330.859 56.5156C331.016 56.1719 331.234 55.9062 331.516 55.7188C331.828 55.5312 332.156 55.4375 332.5 55.4375C333.031 55.4375 333.453 55.6406 333.766 56.0469C334.109 56.4219 334.281 56.8281 334.281 57.2656C334.281 57.4844 334.234 57.7031 334.141 57.9219ZM349.891 56.2344C349.422 58.4219 348.75 60.4688 347.875 62.375C347 64.25 346.062 65.8906 345.062 67.2969C344.094 68.7031 343.109 69.8125 342.109 70.625C341.109 71.4375 340.25 71.875 339.531 71.9375C338.719 71.9375 337.812 71.5312 336.812 70.7188C335.844 69.9062 334.906 68.7812 334 67.3438C333.125 65.875 332.391 64.1406 331.797 62.1406C331.203 60.1406 330.906 57.9688 330.906 55.625C330.906 53.5625 331.078 52 331.422 50.9375C331.797 49.875 332.031 49.2656 332.125 49.1094C332.281 48.8281 332.484 48.6094 332.734 48.4531C333.016 48.2969 333.328 48.2188 333.672 48.2188C334.203 48.2188 334.625 48.4062 334.938 48.7812C335.25 49.125 335.406 49.5156 335.406 49.9531C335.406 50.2656 335.344 50.5312 335.219 50.75C335.188 50.8125 335.047 51.2344 334.797 52.0156C334.547 52.7969 334.422 53.9688 334.422 55.5312C334.422 57.375 334.609 59.0781 334.984 60.6406C335.359 62.2031 335.812 63.5469 336.344 64.6719C336.875 65.7969 337.422 66.6875 337.984 67.3438C338.578 67.9688 339.062 68.2812 339.438 68.2812C339.688 68.2812 340.047 68.0469 340.516 67.5781C341.016 67.1094 341.531 66.4688 342.062 65.6562C342.625 64.8438 343.188 63.875 343.75 62.75C344.344 61.625 344.875 60.4062 345.344 59.0938C345.844 57.75 346.234 56.3438 346.516 54.875C346.828 53.375 346.984 51.8594 346.984 50.3281C346.984 50.0156 346.969 49.7188 346.938 49.4375C346.938 49.125 346.938 48.8125 346.938 48.5C346.938 47.9688 347.094 47.5312 347.406 47.1875C347.75 46.8125 348.188 46.625 348.719 46.625C349.125 46.625 349.484 46.75 349.797 47C350.141 47.25 350.359 47.5938 350.453 48.0312C350.453 48 350.516 48.25 350.641 48.7812C350.766 49.3125 350.969 50 351.25 50.8438C351.562 51.6562 351.938 52.5469 352.375 53.5156C352.844 54.4844 353.391 55.3906 354.016 56.2344C354.672 57.0469 355.422 57.7344 356.266 58.2969C357.109 58.8594 358.078 59.1406 359.172 59.1406C359.766 59.1406 360.281 59.0156 360.719 58.7656C361.156 58.5156 361.516 58.2344 361.797 57.9219C362.078 57.6094 362.281 57.3125 362.406 57.0312C362.562 56.75 362.641 56.5938 362.641 56.5625C362.766 56.2188 362.969 55.9531 363.25 55.7656C363.562 55.5469 363.906 55.4375 364.281 55.4375C364.781 55.4375 365.203 55.625 365.547 56C365.891 56.3438 366.062 56.75 366.062 57.2188C366.062 57.4375 366.016 57.6562 365.922 57.875C365.734 58.3125 365.453 58.8125 365.078 59.375C364.734 59.9375 364.281 60.4688 363.719 60.9688C363.156 61.4688 362.484 61.8906 361.703 62.2344C360.953 62.5469 360.109 62.7031 359.172 62.7031C358.078 62.7031 357.062 62.5156 356.125 62.1406C355.188 61.7344 354.328 61.2344 353.547 60.6406C352.797 60.0156 352.109 59.3281 351.484 58.5781C350.859 57.7969 350.328 57.0156 349.891 56.2344ZM368.312 65.8438C368.969 66.75 369.812 67.4844 370.844 68.0469C371.875 68.5781 373.141 68.8438 374.641 68.8438C376.172 68.8438 377.562 68.4844 378.812 67.7656C380.062 67.0156 381.203 66.0469 382.234 64.8594C383.266 63.6719 384.188 62.3438 385 60.875C385.812 59.4062 386.547 57.9375 387.203 56.4688C387.359 56.125 387.578 55.875 387.859 55.7188C388.141 55.5312 388.453 55.4375 388.797 55.4375C389.328 55.4375 389.75 55.625 390.062 56C390.406 56.375 390.578 56.7812 390.578 57.2188C390.578 57.375 390.562 57.5156 390.531 57.6406C390.5 57.7344 390.453 57.8438 390.391 57.9688C388.234 62.7188 385.875 66.2969 383.312 68.7031C380.781 71.1094 377.906 72.3438 374.688 72.4062C372.625 72.4062 370.844 72 369.344 71.1875C367.844 70.4062 366.609 69.3906 365.641 68.1406C364.672 66.8594 363.953 65.4219 363.484 63.8281C363.016 62.2344 362.781 60.6406 362.781 59.0469C362.781 57.4531 362.969 55.9844 363.344 54.6406C363.75 53.2969 364.312 52.125 365.031 51.125C365.781 50.125 366.656 49.3438 367.656 48.7812C368.688 48.2188 369.812 47.9375 371.031 47.9375C371.75 47.9375 372.453 48.0938 373.141 48.4062C373.859 48.6875 374.5 49.1094 375.062 49.6719C375.625 50.2031 376.078 50.8594 376.422 51.6406C376.766 52.4219 376.938 53.3125 376.938 54.3125C376.938 55.5938 376.719 56.7969 376.281 57.9219C375.844 59.0469 375.234 60.0938 374.453 61.0625C373.703 62.0312 372.797 62.9219 371.734 63.7344C370.672 64.5469 369.531 65.25 368.312 65.8438ZM366.906 62.7969C367.875 62.3906 368.75 61.875 369.531 61.25C370.344 60.625 371.031 59.9375 371.594 59.1875C372.156 58.4375 372.594 57.6562 372.906 56.8438C373.219 56 373.375 55.1562 373.375 54.3125C373.375 53.375 373.141 52.6719 372.672 52.2031C372.203 51.7031 371.656 51.4531 371.031 51.4531C370.188 51.4531 369.469 51.6875 368.875 52.1562C368.281 52.625 367.797 53.2344 367.422 53.9844C367.047 54.7344 366.766 55.5781 366.578 56.5156C366.422 57.4219 366.344 58.3281 366.344 59.2344C366.344 59.7969 366.391 60.3906 366.484 61.0156C366.609 61.6406 366.75 62.2344 366.906 62.7969ZM413.922 58.0156C413.578 58.7344 413.141 59.5938 412.609 60.5938C412.109 61.5625 411.531 62.5781 410.875 63.6406C410.219 64.7031 409.484 65.7656 408.672 66.8281C407.859 67.8594 406.969 68.7969 406 69.6406C405.062 70.4531 404.047 71.1094 402.953 71.6094C401.891 72.1406 400.75 72.4062 399.531 72.4062C397.656 72.4062 396.047 71.8281 394.703 70.6719C393.359 69.5156 392.219 68 391.281 66.125C390.344 64.25 389.578 62.125 388.984 59.75C388.422 57.3438 387.984 54.9062 387.672 52.4375C387.359 49.9375 387.141 47.5156 387.016 45.1719C386.922 42.8281 386.875 40.75 386.875 38.9375C386.875 36.3125 386.953 33.5938 387.109 30.7812C387.297 27.9688 387.578 25.2188 387.953 22.5312C388.328 19.8438 388.797 17.2969 389.359 14.8906C389.953 12.4844 390.641 10.375 391.422 8.5625C392.234 6.75 393.156 5.3125 394.188 4.25C395.219 3.1875 396.391 2.65625 397.703 2.65625C398.734 2.65625 399.656 2.90625 400.469 3.40625C401.312 3.875 402.016 4.65625 402.578 5.75C403.141 6.84375 403.578 8.26563 403.891 10.0156C404.203 11.7656 404.359 13.9062 404.359 16.4375C404.359 19.5625 404.031 22.7969 403.375 26.1406C402.719 29.4531 401.828 32.7969 400.703 36.1719C399.578 39.5469 398.25 42.9219 396.719 46.2969C395.188 49.6406 393.547 52.9062 391.797 56.0938C392.578 60.0625 393.625 63.1875 394.938 65.4688C396.25 67.7188 397.828 68.8438 399.672 68.8438C400.922 68.8438 402.125 68.3594 403.281 67.3906C404.438 66.3906 405.5 65.2188 406.469 63.875C407.438 62.5312 408.281 61.1719 409 59.7969C409.75 58.3906 410.328 57.2656 410.734 56.4219C410.891 56.1094 411.109 55.875 411.391 55.7188C411.672 55.5312 411.984 55.4375 412.328 55.4375C412.859 55.4375 413.281 55.625 413.594 56C413.938 56.375 414.109 56.7969 414.109 57.2656C414.109 57.4531 414.047 57.7031 413.922 58.0156ZM390.438 39.1719C390.438 41.1719 390.484 43.0938 390.578 44.9375C390.672 46.7812 390.797 48.5469 390.953 50.2344C392.266 47.7031 393.516 45.0156 394.703 42.1719C395.891 39.2969 396.938 36.4062 397.844 33.5C398.75 30.5625 399.469 27.6562 400 24.7812C400.562 21.875 400.844 19.1094 400.844 16.4844C400.844 12.7969 400.547 10.1562 399.953 8.5625C399.359 6.96875 398.562 6.17188 397.562 6.17188C396.906 6.17188 396.266 6.625 395.641 7.53125C395.047 8.4375 394.484 9.67188 393.953 11.2344C393.422 12.7969 392.938 14.6406 392.5 16.7656C392.062 18.8906 391.688 21.1719 391.375 23.6094C391.094 26.0469 390.859 28.5938 390.672 31.25C390.516 33.9062 390.438 36.5469 390.438 39.1719ZM415.984 53.6562C415.797 54.1562 415.562 54.7188 415.281 55.3438C415.031 55.9688 414.734 56.625 414.391 57.3125C414.109 57.8438 413.812 58.2656 413.5 58.5781C413.219 58.8594 412.844 59 412.375 59C411.844 59 411.422 58.8438 411.109 58.5312C410.797 58.1875 410.641 57.7969 410.641 57.3594C410.641 57.2031 410.656 57.0781 410.688 56.9844C410.719 56.8594 410.797 56.6719 410.922 56.4219C411.734 54.8594 412.328 53.5 412.703 52.3438C413.109 51.1562 413.438 49.9219 413.688 48.6406C413.469 47.9219 413.312 47.3125 413.219 46.8125C413.125 46.3125 413.078 45.7969 413.078 45.2656C413.078 44.2344 413.297 43.4062 413.734 42.7812C414.172 42.125 414.781 41.7969 415.562 41.7969C416.281 41.7969 416.844 42.1094 417.25 42.7344C417.688 43.3594 417.906 44.125 417.906 45.0312C417.906 45.5312 417.859 46.0312 417.766 46.5312C417.672 47.0312 417.547 47.6562 417.391 48.4062C418.109 50.1875 418.828 51.7656 419.547 53.1406C420.266 54.5156 420.906 55.7812 421.469 56.9375C422.031 58.0625 422.484 59.125 422.828 60.125C423.203 61.125 423.391 62.125 423.391 63.125C423.391 64.4375 423.125 65.6875 422.594 66.875C422.062 68.0625 421.188 69.0625 419.969 69.875C420.125 69.9062 420.281 69.9219 420.438 69.9219C420.594 69.9219 420.75 69.9219 420.906 69.9219C422.688 69.9219 424.328 69.5156 425.828 68.7031C427.328 67.8906 428.672 66.8438 429.859 65.5625C431.078 64.25 432.156 62.8125 433.094 61.25C434.031 59.6562 434.844 58.0781 435.531 56.5156C435.844 55.7969 436.281 55.4375 436.844 55.4375C437.375 55.4375 437.781 55.625 438.062 56C438.375 56.375 438.531 56.7812 438.531 57.2188C438.531 57.4688 438.484 57.7031 438.391 57.9219C438.047 58.7656 437.594 59.7344 437.031 60.8281C436.5 61.8906 435.844 63 435.062 64.1562C434.312 65.2812 433.438 66.3906 432.438 67.4844C431.438 68.5781 430.312 69.5625 429.062 70.4375C427.844 71.2812 426.5 71.9531 425.031 72.4531C423.562 72.9844 421.953 73.25 420.203 73.25C418.109 73.25 416.156 72.875 414.344 72.125C412.562 71.4062 411.109 70.2031 409.984 68.5156C409.797 68.2344 409.703 67.9375 409.703 67.625C409.703 67.1562 409.875 66.75 410.219 66.4062C410.594 66.0312 411.016 65.8438 411.484 65.8438C411.984 65.8438 412.406 66.0156 412.75 66.3594C412.781 66.4219 412.891 66.5312 413.078 66.6875C413.266 66.8125 413.484 66.9688 413.734 67.1562C414.016 67.3125 414.328 67.4531 414.672 67.5781C415.047 67.7031 415.422 67.7656 415.797 67.7656C416.547 67.7656 417.172 67.6094 417.672 67.2969C418.203 66.9844 418.625 66.6094 418.938 66.1719C419.25 65.7031 419.469 65.2188 419.594 64.7188C419.75 64.1875 419.828 63.7344 419.828 63.3594C419.828 62.5781 419.703 61.7969 419.453 61.0156C419.203 60.2344 418.875 59.4531 418.469 58.6719C418.094 57.8906 417.672 57.0938 417.203 56.2812C416.766 55.4375 416.359 54.5625 415.984 53.6562ZM444.531 69.6406C444.531 70.3594 444.281 70.9531 443.781 71.4219C443.312 71.9219 442.719 72.1719 442 72.1719C441.281 72.1719 440.672 71.9219 440.172 71.4219C439.703 70.9531 439.469 70.3594 439.469 69.6406C439.469 68.9531 439.703 68.375 440.172 67.9062C440.672 67.4062 441.281 67.1562 442 67.1562C442.719 67.1562 443.312 67.4062 443.781 67.9062C444.281 68.375 444.531 68.9531 444.531 69.6406Z" fill="#EEDBDB"/>
</g>
<defs>
<filter id="filter0_d_12_8" x="0.1875" y="0.125" width="448.344" height="81.3594" filterUnits="userSpaceOnUse" color-interpolation-filters="sRGB">
<feFlood flood-opacity="0" result="BackgroundImageFix"/>
<feColorMatrix in="SourceAlpha" type="matrix" values="0 0 0 0 0 0 0 0 0 0 0 0 0 0 0 0 0 0 127 0" result="hardAlpha"/>
<feOffset dy="4"/>
<feGaussianBlur stdDeviation="2"/>
<feComposite in2="hardAlpha" operator="out"/>
<feColorMatrix type="matrix" values="0 0 0 0 0 0 0 0 0 0 0 0 0 0 0 0 0 0 0.25 0"/>
<feBlend mode="normal" in2="BackgroundImageFix" result="effect1_dropShadow_12_8"/>
<feBlend mode="normal" in="SourceGraphic" in2="effect1_dropShadow_12_8" result="shape"/>
</filter>
</defs>
</svg>
