<svg width="398" height="96" viewBox="0 0 398 96" fill="none" xmlns="http://www.w3.org/2000/svg">
<g filter="url(#filter0_d_17_9)">
<path d="M8.41375 3.744C9.94975 3.168 11.6058 2.88 13.3818 2.88C17.6538 2.88 19.7898 4.824 19.7898 8.712C19.7898 10.824 19.5498 14.304 19.0698 19.152C18.5898 23.952 18.3498 28.944 18.3498 34.128C18.3498 39.312 18.5178 43.608 18.8538 47.016C20.1498 47.16 21.4458 47.232 22.7418 47.232C29.0778 47.232 34.6458 46.176 39.4458 44.064C40.0218 45.36 40.3098 46.824 40.3098 48.456C40.3098 50.088 39.7338 51.504 38.5818 52.704C37.4778 53.856 36.1098 54.432 34.4778 54.432C31.0698 54.432 23.6058 54.144 12.0858 53.568C11.1738 53.52 10.3818 53.256 9.70975 52.776C9.03775 52.248 8.70175 51.6 8.70175 50.832C8.70175 48.288 8.89375 43.992 9.27775 37.944C9.70975 31.896 9.92575 26.328 9.92575 21.24C9.92575 16.104 9.42175 10.272 8.41375 3.744ZM45.6141 46.656L46.3341 31.68C46.3341 27.024 45.6621 22.608 44.3181 18.432C45.6621 17.856 47.3181 17.568 49.2861 17.568C53.1261 17.568 55.0461 19.704 55.0461 23.976C55.0461 26.376 54.7821 29.76 54.2541 34.128C53.7261 38.448 53.4621 41.592 53.4621 43.56C53.4621 45.96 54.5421 47.16 56.7021 47.16C57.9981 47.16 59.5101 46.08 61.2381 43.92C63.0141 41.712 64.5261 39.264 65.7741 36.576C67.0701 33.84 67.8381 31.608 68.0781 29.88C67.7901 24.6 67.3821 20.784 66.8541 18.432C68.3901 17.856 69.9501 17.568 71.5341 17.568C73.1661 17.568 74.5101 18.072 75.5661 19.08C76.6701 20.088 77.2221 21.336 77.2221 22.824C77.2221 24.312 77.0061 26.784 76.5741 30.24C76.1421 33.696 75.9261 37.32 75.9261 41.112C75.9261 44.856 76.3581 48.864 77.2221 53.136C75.3501 53.712 73.6701 54 72.1821 54C69.2061 54 67.7181 52.032 67.7181 48.096C67.7181 46.368 67.9101 43.968 68.2941 40.896C66.3741 44.976 64.0221 48.264 61.2381 50.76C58.5021 53.208 55.7181 54.432 52.8861 54.432C48.0381 54.432 45.6141 51.84 45.6141 46.656ZM117.525 49.104C117.525 50.784 117.069 52.104 116.157 53.064C115.293 53.976 114.117 54.432 112.629 54.432C111.141 54.432 109.797 54.144 108.597 53.568C107.445 52.944 106.293 51.936 105.141 50.544C103.989 49.152 103.077 47.976 102.405 47.016C101.445 45.528 99.6927 42.576 97.1487 38.16C92.3487 42.72 89.9487 48 89.9487 54C87.5487 54 85.5327 53.544 83.9007 52.632C82.3167 51.72 81.5247 50.376 81.5247 48.6C81.5247 46.824 82.1007 45.192 83.2527 43.704C84.4527 42.168 86.3487 40.296 88.9407 38.088C91.5807 35.88 93.3327 34.344 94.1967 33.48C92.3727 30.696 90.5487 28.512 88.7247 26.928C86.9487 25.296 84.6687 23.952 81.8847 22.896C81.8847 21.312 82.3887 20.04 83.3967 19.08C84.4527 18.072 85.6767 17.568 87.0687 17.568C88.4607 17.568 89.7087 17.832 90.8127 18.36C91.9647 18.84 92.9487 19.416 93.7647 20.088C94.6287 20.712 95.5647 21.648 96.5727 22.896C97.7727 24.288 99.3327 26.448 101.253 29.376C102.405 28.032 103.269 26.952 103.845 26.136C105.285 23.976 106.005 21.12 106.005 17.568C107.781 17.568 109.245 17.64 110.397 17.784C111.597 17.928 112.701 18.384 113.709 19.152C114.765 19.872 115.293 20.904 115.293 22.248C115.293 23.592 114.621 25.008 113.277 26.496C111.933 27.984 110.229 29.52 108.165 31.104C106.101 32.64 104.781 33.72 104.205 34.344C106.269 38.52 108.333 41.832 110.397 44.28C112.461 46.68 114.837 48.288 117.525 49.104ZM144.372 2.664L159.564 2.88C167.436 2.88 173.196 2.592 176.844 2.016C177.372 3.024 177.636 4.176 177.636 5.472C177.636 6.768 177.06 7.944 175.908 9C174.756 10.008 173.364 10.512 171.732 10.512L163.452 9.576C163.452 9.912 163.332 11.4 163.092 14.04C162.42 20.52 162.084 27.024 162.084 33.552C162.084 40.08 162.588 46.608 163.596 53.136C162.012 53.712 160.356 54 158.628 54C156.9 54 155.412 53.52 154.164 52.56C152.916 51.552 152.292 50.064 152.292 48.096C152.292 46.08 152.532 42.552 153.012 37.512C153.492 32.472 153.732 27.576 153.732 22.824C153.732 18.024 153.492 13.56 153.012 9.432C147.204 9.72 142.668 10.536 139.404 11.88C138.828 10.776 138.54 9.552 138.54 8.208C138.54 6.816 139.092 5.544 140.196 4.392C141.3 3.24 142.692 2.664 144.372 2.664ZM192.234 53.136C190.746 53.712 189.162 54 187.482 54C185.802 54 184.434 53.616 183.378 52.848C182.37 52.032 181.866 50.928 181.866 49.536C181.866 48.096 182.082 45.504 182.514 41.76C182.946 38.016 183.162 34.392 183.162 30.888C183.162 27.336 182.61 23.184 181.506 18.432C183.042 17.856 184.554 17.568 186.042 17.568C187.53 17.568 188.802 18.072 189.858 19.08C190.962 20.088 191.514 21.432 191.514 23.112C191.514 23.976 191.37 25.272 191.082 27C190.794 28.68 190.626 29.952 190.578 30.816C192.45 26.544 194.658 23.208 197.202 20.808C199.794 18.36 202.362 17.136 204.906 17.136C206.682 17.136 208.098 17.76 209.154 19.008C210.21 20.256 210.738 21.84 210.738 23.76C210.738 25.632 210.258 27.168 209.298 28.368C208.338 29.52 207.138 30.096 205.698 30.096C204.306 30.096 203.178 29.952 202.314 29.664C202.458 29.088 202.53 28.56 202.53 28.08C202.53 26.112 201.834 25.128 200.442 25.128C198.33 25.128 196.338 27.264 194.466 31.536C192.642 35.76 191.418 39.72 190.794 43.416C191.034 47.016 191.514 50.256 192.234 53.136ZM247.461 20.088C246.165 25.608 245.517 31.152 245.517 36.72C245.517 42.24 246.141 47.712 247.389 53.136C245.661 53.712 243.885 54 242.061 54C240.237 54 238.965 53.472 238.245 52.416C237.525 51.312 237.165 49.752 237.165 47.736C237.165 45.672 237.477 42.864 238.101 39.312C234.693 46.608 231.405 51.216 228.237 53.136C226.797 54 225.309 54.432 223.773 54.432C220.125 54.432 217.293 53.088 215.277 50.4C213.261 47.664 212.253 44.28 212.253 40.248C212.253 34.104 213.957 28.728 217.365 24.12C220.773 19.464 225.189 17.136 230.613 17.136C236.085 17.136 241.701 18.12 247.461 20.088ZM238.029 24.408C235.485 23.64 233.325 23.256 231.549 23.256C227.949 23.256 225.261 24.048 223.485 25.632C221.853 29.664 221.037 33.768 221.037 37.944C221.037 40.152 221.373 42.384 222.045 44.64C222.765 46.896 223.845 48.024 225.285 48.024C226.965 48.024 229.125 45.552 231.765 40.608C234.405 35.664 236.493 30.264 238.029 24.408ZM281.943 42.624C280.263 45.888 278.151 48.672 275.607 50.976C273.063 53.28 270.519 54.432 267.975 54.432C265.431 54.432 263.463 53.568 262.071 51.84C260.727 50.064 259.767 47.808 259.191 45.072C258.615 42.288 258.087 39.432 257.607 36.504C257.175 33.576 256.407 30.72 255.303 27.936C254.199 25.152 252.687 23.064 250.767 21.672C251.391 20.52 252.327 19.56 253.575 18.792C254.823 17.976 256.167 17.568 257.607 17.568C259.863 17.568 261.687 19.032 263.079 21.96C264.471 24.84 265.359 28.032 265.743 31.536C266.175 35.04 266.631 38.448 267.111 41.76C267.639 45.024 268.239 46.896 268.911 47.376C270.543 47.28 271.959 46.248 273.159 44.28C274.407 42.264 275.319 39.84 275.895 37.008C276.951 31.824 277.479 27.768 277.479 24.84C277.479 21.912 277.335 19.656 277.047 18.072C278.727 17.736 280.167 17.568 281.367 17.568C285.495 17.568 287.559 19.536 287.559 23.472C287.559 25.968 287.031 28.968 285.975 32.472C284.967 35.928 283.623 39.312 281.943 42.624ZM298.521 37.656C298.521 41.112 299.073 43.848 300.177 45.864C301.281 47.832 303.129 48.816 305.721 48.816C308.313 48.816 310.329 47.952 311.769 46.224C313.257 44.448 314.001 42.312 314.001 39.816C315.633 39.816 317.049 40.224 318.249 41.04C319.449 41.856 320.049 42.984 320.049 44.424C320.049 47.4 318.465 49.896 315.297 51.912C312.129 53.88 308.793 54.864 305.289 54.864C299.817 54.864 295.857 53.4 293.409 50.472C290.961 47.496 289.737 43.104 289.737 37.296C289.737 31.488 291.369 26.616 294.633 22.68C297.945 18.696 302.337 16.704 307.809 16.704C311.553 16.704 314.553 17.568 316.809 19.296C319.113 20.976 320.265 23.616 320.265 27.216C320.265 30.768 318.633 33.456 315.369 35.28C312.153 37.056 308.217 37.944 303.561 37.944C301.929 37.944 300.249 37.848 298.521 37.656ZM298.593 31.968C300.033 32.256 301.545 32.4 303.129 32.4C306.585 32.4 309.489 31.752 311.841 30.456C312.129 29.304 312.273 28.392 312.273 27.72C312.273 26.04 311.673 24.768 310.473 23.904C309.273 23.04 307.617 22.608 305.505 22.608C303.441 22.608 301.569 23.28 299.889 24.624C299.025 27.12 298.593 29.568 298.593 31.968ZM327.849 0.863997C329.385 0.287996 330.969 -4.29153e-06 332.601 -4.29153e-06C334.233 -4.29153e-06 335.577 0.551996 336.633 1.656C337.737 2.712 338.289 4.176 338.289 6.048C338.289 7.872 338.025 11.568 337.497 17.136C337.017 22.656 336.777 27 336.777 30.168C336.777 37.992 337.329 45.648 338.433 53.136C336.897 53.712 335.265 54 333.537 54C329.841 54 327.993 52.2 327.993 48.6C327.993 46.872 328.257 43.488 328.785 38.448C329.313 33.36 329.577 29.28 329.577 26.208C329.577 15.984 329.001 7.536 327.849 0.863997ZM352.8 40.896C352.656 41.568 352.584 42.12 352.584 42.552C352.584 44.52 353.16 46.032 354.312 47.088C355.512 48.144 357.096 48.672 359.064 48.672C361.08 48.672 362.736 48.312 364.032 47.592C365.376 46.824 366.048 45.696 366.048 44.208C366.048 42.72 365.328 41.544 363.888 40.68C362.496 39.768 360.792 39.048 358.776 38.52C356.808 37.992 354.816 37.416 352.8 36.792C350.784 36.12 349.056 35.088 347.616 33.696C346.224 32.304 345.528 30.552 345.528 28.44C345.528 25.128 347.28 22.344 350.784 20.088C354.288 17.832 357.96 16.704 361.8 16.704C366.024 16.704 369.24 17.568 371.448 19.296C372.744 20.304 373.392 21.648 373.392 23.328C373.392 24.96 372.744 26.304 371.448 27.36C370.2 28.368 368.664 28.872 366.84 28.872C366.456 28.872 365.976 28.824 365.4 28.728C365.544 28.104 365.616 27.552 365.616 27.072C365.616 25.68 365.088 24.624 364.032 23.904C362.976 23.184 361.536 22.824 359.712 22.824C357.936 22.824 356.304 23.184 354.816 23.904C354.24 24.672 353.952 25.656 353.952 26.856C353.952 28.056 354.648 29.04 356.04 29.808C357.432 30.528 359.112 31.176 361.08 31.752C363.096 32.28 365.112 32.904 367.128 33.624C369.144 34.296 370.848 35.376 372.24 36.864C373.632 38.304 374.328 40.128 374.328 42.336C374.328 45.936 372.528 48.936 368.928 51.336C365.376 53.688 361.704 54.864 357.912 54.864C354.12 54.864 350.976 54.192 348.48 52.848C346.032 51.456 344.808 49.368 344.808 46.584C344.808 44.856 345.432 43.464 346.68 42.408C347.976 41.304 349.536 40.752 351.36 40.752C351.744 40.752 352.224 40.8 352.8 40.896ZM380.31 44.352C381.846 43.536 383.406 43.128 384.99 43.128C388.542 43.128 390.318 44.784 390.318 48.096C390.318 49.872 389.718 51.384 388.518 52.632C387.318 53.832 385.878 54.432 384.198 54.432C382.518 54.432 381.222 53.952 380.31 52.992C379.446 52.032 379.014 50.736 379.014 49.104C379.014 47.424 379.446 45.84 380.31 44.352Z" fill="#EEDBDB"/>
</g>
<path d="M103.52 81.569H105.626V69.23H101.468V73.091H99.8215V67.799H113.537V73.091H111.89V69.23H107.813V81.569H109.919V83H103.52V81.569ZM121.924 72.254C122.608 72.254 123.328 72.434 124.084 72.794L123.598 74.603C122.986 74.207 122.365 74.009 121.735 74.009C121.015 74.009 120.412 74.306 119.926 74.9C119.458 75.476 119.224 76.277 119.224 77.303L119.197 81.569H121.087V83H115.174V81.569H117.226V73.82H115.174V72.389H119.197V74.333C119.773 72.947 120.682 72.254 121.924 72.254ZM136.551 81.569V83H133.122L133.014 82.055C132.438 82.487 131.862 82.802 131.286 83C130.71 83.198 130.062 83.297 129.342 83.297C128.262 83.297 127.38 83 126.696 82.406C126.03 81.794 125.697 81.038 125.697 80.138C125.697 78.986 126.084 78.149 126.858 77.627C127.65 77.087 128.685 76.817 129.963 76.817C130.881 76.817 131.862 76.934 132.906 77.168V76.061C132.906 75.251 132.681 74.639 132.231 74.225C131.799 73.811 131.187 73.604 130.395 73.604C129.873 73.604 129.27 73.694 128.586 73.874C127.92 74.036 127.308 74.27 126.75 74.576L126.156 73.28C126.75 72.902 127.434 72.614 128.208 72.416C129 72.218 129.738 72.119 130.422 72.119C131.808 72.119 132.897 72.461 133.689 73.145C134.481 73.811 134.877 74.72 134.877 75.872V81.569H136.551ZM127.587 80.03C127.587 80.588 127.767 81.047 128.127 81.407C128.505 81.749 129.009 81.92 129.639 81.92C130.701 81.92 131.79 81.533 132.906 80.759V78.329C131.952 78.113 131.016 78.005 130.098 78.005C129.378 78.005 128.775 78.167 128.289 78.491C127.821 78.797 127.587 79.31 127.587 80.03ZM138.955 73.82H137.146V72.389H142.816V73.82H141.088L144.058 80.948L147.001 73.82H145.3V72.389H150.646V73.82H148.945L144.814 83H143.005L138.955 73.82ZM162.328 78.113H153.58C153.706 79.247 154.111 80.147 154.795 80.813C155.479 81.461 156.352 81.785 157.414 81.785C158.89 81.785 160.231 81.218 161.437 80.084L162.139 81.299C161.617 81.911 160.96 82.406 160.168 82.784C159.376 83.144 158.485 83.324 157.495 83.324C156.379 83.324 155.362 83.09 154.444 82.622C153.526 82.154 152.806 81.497 152.284 80.651C151.762 79.787 151.501 78.806 151.501 77.708C151.501 76.592 151.744 75.611 152.23 74.765C152.734 73.901 153.409 73.244 154.255 72.794C155.119 72.326 156.073 72.092 157.117 72.092C158.737 72.092 160.006 72.587 160.924 73.577C161.86 74.567 162.328 75.908 162.328 77.6V78.113ZM160.357 76.871C160.357 75.845 160.051 75.035 159.439 74.441C158.845 73.847 158.071 73.55 157.117 73.55C156.181 73.55 155.389 73.847 154.741 74.441C154.093 75.035 153.706 75.845 153.58 76.871H160.357ZM164 81.569H165.971V68.933H164.054V67.529H167.969V81.569H169.697V83H164V81.569ZM181.887 70.067C181.473 70.067 181.122 69.941 180.834 69.689C180.564 69.419 180.429 69.086 180.429 68.69C180.429 68.294 180.564 67.97 180.834 67.718C181.122 67.448 181.473 67.313 181.887 67.313C182.301 67.313 182.643 67.448 182.913 67.718C183.201 67.97 183.345 68.294 183.345 68.69C183.345 69.086 183.201 69.419 182.913 69.689C182.643 69.941 182.301 70.067 181.887 70.067ZM179.106 81.569H181.158V73.82H179.133V72.389H183.129V81.569H185.046V83H179.106V81.569ZM199.615 81.569V83H193.918V81.569H195.673V76.034C195.673 75.296 195.493 74.72 195.133 74.306C194.773 73.892 194.278 73.685 193.648 73.685C193.126 73.685 192.595 73.784 192.055 73.982C191.533 74.162 190.957 74.441 190.327 74.819V81.569H192.244V83H186.304V81.569H188.356V73.82H186.304V72.389H190.327V73.442C191.731 72.56 193.009 72.119 194.161 72.119C195.169 72.119 195.997 72.434 196.645 73.064C197.311 73.676 197.644 74.54 197.644 75.656V81.569H199.615ZM224.301 78.896C223.167 81.794 220.791 83.261 217.173 83.297C215.607 83.297 214.221 82.964 213.015 82.298C211.809 81.614 210.873 80.678 210.207 79.49C209.541 78.302 209.208 76.934 209.208 75.386C209.208 73.874 209.532 72.524 210.18 71.336C210.846 70.148 211.782 69.221 212.988 68.555C214.212 67.871 215.616 67.529 217.2 67.529C218.334 67.529 219.351 67.745 220.251 68.177C221.151 68.591 221.853 69.167 222.357 69.905V67.799H223.977V72.389L222.519 72.443C221.961 71.291 221.259 70.454 220.413 69.932C219.567 69.41 218.532 69.149 217.308 69.149C216.138 69.149 215.103 69.428 214.203 69.986C213.321 70.526 212.637 71.264 212.151 72.2C211.665 73.136 211.422 74.189 211.422 75.359C211.422 76.619 211.674 77.726 212.178 78.68C212.682 79.634 213.384 80.372 214.284 80.894C215.184 81.416 216.192 81.677 217.308 81.677C218.532 81.677 219.621 81.389 220.575 80.813C221.547 80.237 222.249 79.328 222.681 78.086L224.301 78.896ZM232.24 83.324C231.106 83.324 230.107 83.09 229.243 82.622C228.379 82.154 227.704 81.497 227.218 80.651C226.75 79.787 226.516 78.797 226.516 77.681C226.516 76.565 226.75 75.584 227.218 74.738C227.704 73.892 228.379 73.244 229.243 72.794C230.107 72.326 231.106 72.092 232.24 72.092C233.374 72.092 234.373 72.326 235.237 72.794C236.119 73.244 236.803 73.892 237.289 74.738C237.775 75.584 238.018 76.556 238.018 77.654C238.018 78.77 237.775 79.76 237.289 80.624C236.803 81.488 236.119 82.154 235.237 82.622C234.373 83.09 233.374 83.324 232.24 83.324ZM232.24 81.758C233.356 81.758 234.256 81.389 234.94 80.651C235.624 79.895 235.966 78.896 235.966 77.654C235.966 76.448 235.624 75.485 234.94 74.765C234.256 74.027 233.356 73.658 232.24 73.658C231.124 73.658 230.233 74.027 229.567 74.765C228.901 75.503 228.568 76.475 228.568 77.681C228.568 78.905 228.901 79.895 229.567 80.651C230.251 81.389 231.142 81.758 232.24 81.758ZM259.877 81.569V83H254.18V81.569H255.962V76.034C255.962 75.296 255.782 74.72 255.422 74.306C255.062 73.892 254.567 73.685 253.937 73.685C252.839 73.685 251.687 74.09 250.481 74.9C250.535 75.17 250.562 75.44 250.562 75.71V81.569H252.506V83H246.809V81.569H248.591V76.034C248.591 75.296 248.411 74.72 248.051 74.306C247.691 73.892 247.196 73.685 246.566 73.685C245.648 73.685 244.559 74.045 243.299 74.765V81.569H245.216V83H239.276V81.569H241.328V73.82H239.276V72.389H243.299V73.415C244.667 72.551 245.927 72.119 247.079 72.119C247.781 72.119 248.393 72.272 248.915 72.578C249.437 72.866 249.833 73.271 250.103 73.793C250.895 73.253 251.633 72.839 252.317 72.551C253.001 72.263 253.712 72.119 254.45 72.119C255.458 72.119 256.286 72.434 256.934 73.064C257.6 73.676 257.933 74.54 257.933 75.656V81.569H259.877ZM261.041 81.569H263.147V73.82H261.068V72.389H263.147V70.121C263.147 69.113 263.408 68.33 263.93 67.772C264.47 67.196 265.271 66.908 266.333 66.908C267.143 66.908 267.818 67.106 268.358 67.502C268.916 67.898 269.222 68.528 269.276 69.392L267.737 69.824C267.647 69.32 267.503 68.942 267.305 68.69C267.125 68.438 266.828 68.312 266.414 68.312C265.568 68.312 265.145 68.924 265.145 70.148V72.389H268.385V73.82H265.145V81.569H267.872V83H261.041V81.569ZM274.876 83.324C273.742 83.324 272.743 83.09 271.879 82.622C271.015 82.154 270.34 81.497 269.854 80.651C269.386 79.787 269.152 78.797 269.152 77.681C269.152 76.565 269.386 75.584 269.854 74.738C270.34 73.892 271.015 73.244 271.879 72.794C272.743 72.326 273.742 72.092 274.876 72.092C276.01 72.092 277.009 72.326 277.873 72.794C278.755 73.244 279.439 73.892 279.925 74.738C280.411 75.584 280.654 76.556 280.654 77.654C280.654 78.77 280.411 79.76 279.925 80.624C279.439 81.488 278.755 82.154 277.873 82.622C277.009 83.09 276.01 83.324 274.876 83.324ZM274.876 81.758C275.992 81.758 276.892 81.389 277.576 80.651C278.26 79.895 278.602 78.896 278.602 77.654C278.602 76.448 278.26 75.485 277.576 74.765C276.892 74.027 275.992 73.658 274.876 73.658C273.76 73.658 272.869 74.027 272.203 74.765C271.537 75.503 271.204 76.475 271.204 77.681C271.204 78.905 271.537 79.895 272.203 80.651C272.887 81.389 273.778 81.758 274.876 81.758ZM289.012 72.254C289.696 72.254 290.416 72.434 291.172 72.794L290.686 74.603C290.074 74.207 289.453 74.009 288.823 74.009C288.103 74.009 287.5 74.306 287.014 74.9C286.546 75.476 286.312 76.277 286.312 77.303L286.285 81.569H288.175V83H282.262V81.569H284.314V73.82H282.262V72.389H286.285V74.333C286.861 72.947 287.77 72.254 289.012 72.254ZM297.105 83C295.053 83 294.027 81.956 294.027 79.868V73.82H292.272V72.389H294.027V68.771L296.025 67.988V72.389H298.833V73.82H296.025V79.76C296.025 80.426 296.133 80.894 296.349 81.164C296.565 81.434 296.934 81.569 297.456 81.569H299.076V83H297.105Z" fill="#EEDBDB"/>
<defs>
<filter id="filter0_d_17_9" x="4.41376" y="0" width="389.904" height="62.864" filterUnits="userSpaceOnUse" color-interpolation-filters="sRGB">
<feFlood flood-opacity="0" result="BackgroundImageFix"/>
<feColorMatrix in="SourceAlpha" type="matrix" values="0 0 0 0 0 0 0 0 0 0 0 0 0 0 0 0 0 0 127 0" result="hardAlpha"/>
<feOffset dy="4"/>
<feGaussianBlur stdDeviation="2"/>
<feComposite in2="hardAlpha" operator="out"/>
<feColorMatrix type="matrix" values="0 0 0 0 0 0 0 0 0 0 0 0 0 0 0 0 0 0 0.25 0"/>
<feBlend mode="normal" in2="BackgroundImageFix" result="effect1_dropShadow_17_9"/>
<feBlend mode="normal" in="SourceGraphic" in2="effect1_dropShadow_17_9" result="shape"/>
</filter>
</defs>
</svg>
